<svg xmlns="http://www.w3.org/2000/svg" version="1.1" xmlns:xlink="http://www.w3.org/1999/xlink" xmlns:svgjs="http://svgjs.dev/svgjs" width="2000" height="535" viewBox="0 0 2000 535"><g transform="matrix(1,0,0,1,-1.2121212121212466,1.247314262492182)"><svg viewBox="0 0 396 106" data-background-color="#eaf3ee" preserveAspectRatio="xMidYMid meet" height="535" width="2000" xmlns="http://www.w3.org/2000/svg" xmlns:xlink="http://www.w3.org/1999/xlink"><g id="tight-bounds" transform="matrix(1,0,0,1,0.2400000000000091,-0.24713142397041565)"><svg viewBox="0 0 395.52 106.49426284794085" height="106.49426284794085" width="395.52"><g><svg viewBox="0 0 395.52 106.49426284794085" height="106.49426284794085" width="395.52"><g><svg viewBox="0 0 395.52 106.49426284794085" height="106.49426284794085" width="395.52"><g><svg viewBox="0 0 578.0106669215351 155.63010692772943" height="106.49426284794085" width="395.52"><g transform="matrix(1,0,0,1,182.4906669215351,21.508936630388078)"><svg viewBox="0 0 395.52 112.61223366695327" height="112.61223366695327" width="395.52"><g id="textblocktransform"><svg viewBox="0 0 395.52 112.61223366695327" height="112.61223366695327" width="395.52" id="textblock"><g><svg viewBox="0 0 395.52 66.69091218371253" height="66.69091218371253" width="395.52"><g transform="matrix(1,0,0,1,0,0)"><svg width="395.52" viewBox="3.45 -39.2 235.13000000000002 39.650000000000006" height="66.69091218371253" data-palette-color="#2e8b57"><path d="M33.6-34.9L41.5-34.9 41.5 0 34.5 0 34.5-22.7 25.15 0 19.85 0 10.45-22.7 10.45 0 3.45 0 3.45-34.9 11.4-34.9 22.5-8.95 33.6-34.9ZM46.6-13.95Q46.6-18.15 48.27-21.4 49.95-24.65 52.82-26.4 55.7-28.15 59.25-28.15L59.25-28.15Q62.35-28.15 64.67-26.9 67-25.65 68.4-23.75L68.4-23.75 68.4-27.7 75.45-27.7 75.45 0 68.4 0 68.4-4.05Q67.05-2.1 64.67-0.83 62.3 0.45 59.2 0.45L59.2 0.45Q55.7 0.45 52.82-1.35 49.95-3.15 48.27-6.43 46.6-9.7 46.6-13.95L46.6-13.95ZM68.4-13.85Q68.4-16.4 67.4-18.23 66.4-20.05 64.7-21.03 63-22 61.05-22L61.05-22Q59.1-22 57.45-21.05 55.8-20.1 54.77-18.28 53.75-16.45 53.75-13.95L53.75-13.95Q53.75-11.45 54.77-9.58 55.8-7.7 57.47-6.7 59.15-5.7 61.05-5.7L61.05-5.7Q63-5.7 64.7-6.68 66.4-7.65 67.4-9.47 68.4-11.3 68.4-13.85L68.4-13.85ZM89.3-23.4Q90.64-25.6 92.82-26.85 95-28.1 97.8-28.1L97.8-28.1 97.8-20.75 95.94-20.75Q92.64-20.75 90.97-19.2 89.3-17.65 89.3-13.8L89.3-13.8 89.3 0 82.3 0 82.3-27.7 89.3-27.7 89.3-23.4ZM127.99 0L118.89 0 109.49-11.8 109.49 0 102.49 0 102.49-37 109.49-37 109.49-15.95 118.79-27.7 127.89-27.7 115.69-13.8 127.99 0ZM157.44-14.45Q157.44-12.95 157.24-11.75L157.24-11.75 136.99-11.75Q137.24-8.75 139.09-7.05 140.94-5.35 143.64-5.35L143.64-5.35Q147.54-5.35 149.19-8.7L149.19-8.7 156.74-8.7Q155.54-4.7 152.14-2.13 148.74 0.45 143.79 0.45L143.79 0.45Q139.79 0.45 136.62-1.33 133.44-3.1 131.67-6.35 129.89-9.6 129.89-13.85L129.89-13.85Q129.89-18.15 131.64-21.4 133.39-24.65 136.54-26.4 139.69-28.15 143.79-28.15L143.79-28.15Q147.74-28.15 150.87-26.45 153.99-24.75 155.72-21.63 157.44-18.5 157.44-14.45L157.44-14.45ZM137.04-16.45L150.19-16.45Q150.14-19.15 148.24-20.78 146.34-22.4 143.59-22.4L143.59-22.4Q140.99-22.4 139.22-20.83 137.44-19.25 137.04-16.45L137.04-16.45ZM176.89-21.95L170.69-21.95 170.69-8.55Q170.69-7.15 171.36-6.53 172.04-5.9 173.64-5.9L173.64-5.9 176.89-5.9 176.89 0 172.49 0Q163.64 0 163.64-8.6L163.64-8.6 163.64-21.95 160.34-21.95 160.34-27.7 163.64-27.7 163.64-34.55 170.69-34.55 170.69-27.7 176.89-27.7 176.89-21.95ZM185.49-31Q183.64-31 182.41-32.18 181.19-33.35 181.19-35.1L181.19-35.1Q181.19-36.85 182.41-38.02 183.64-39.2 185.49-39.2L185.49-39.2Q187.34-39.2 188.56-38.02 189.79-36.85 189.79-35.1L189.79-35.1Q189.79-33.35 188.56-32.18 187.34-31 185.49-31L185.49-31ZM181.94-27.7L188.94-27.7 188.94 0 181.94 0 181.94-27.7ZM211.18-28.1Q216.13-28.1 219.18-24.98 222.23-21.85 222.23-16.25L222.23-16.25 222.23 0 215.23 0 215.23-15.3Q215.23-18.6 213.58-20.38 211.93-22.15 209.08-22.15L209.08-22.15Q206.18-22.15 204.51-20.38 202.83-18.6 202.83-15.3L202.83-15.3 202.83 0 195.83 0 195.83-27.7 202.83-27.7 202.83-24.25Q204.23-26.05 206.41-27.08 208.58-28.1 211.18-28.1L211.18-28.1ZM230.38-35.5L237.93-35.5 237.13-11.35 231.23-11.35 230.38-35.5ZM234.33 0.35Q232.43 0.35 231.21-0.83 229.98-2 229.98-3.75L229.98-3.75Q229.98-5.5 231.21-6.68 232.43-7.85 234.33-7.85L234.33-7.85Q236.18-7.85 237.38-6.68 238.58-5.5 238.58-3.75L238.58-3.75Q238.58-2 237.38-0.83 236.18 0.35 234.33 0.35L234.33 0.35Z" opacity="1" transform="matrix(1,0,0,1,0,0)" fill="#2e8b57" class="wordmark-text-0" data-fill-palette-color="primary" id="text-0"></path></svg></g></svg></g><g transform="matrix(1,0,0,1,0,82.43503596839464)"><svg viewBox="0 0 375.74399999999997 30.17719769855863" height="30.17719769855863" width="375.74399999999997"><g transform="matrix(1,0,0,1,0,0)"><svg width="375.74399999999997" viewBox="4.2 -32.64 411.55 33.06" height="30.17719769855863" data-palette-color="#3c3c3c"><path d="M5.96 0.07Q4.2 0.07 4.2-0.88L4.2-0.88 4.2-29.52Q4.2-30.49 5.96-30.49L5.96-30.49 6.3-30.49Q8.03-30.49 8.03-29.52L8.03-29.52 8.03-16.24 8.2-16.24 18.87-29.86Q19.17-30.18 19.81-30.33 20.46-30.49 21.24-30.49L21.24-30.49 21.66-30.49Q22.39-30.49 22.78-30.32 23.17-30.15 23.17-29.91L23.17-29.91Q23.17-29.52 22.75-29.03L22.75-29.03 11.91-15.5 25.05-1.22Q25.44-0.81 25.44-0.54L25.44-0.54Q25.44-0.17 25.01-0.05 24.58 0.07 23.54 0.07L23.54 0.07 23 0.07Q22.07 0.07 21.52-0.02 20.97-0.12 20.63-0.49L20.63-0.49 8.2-14.45 8.03-14.45 8.03-0.88Q8.03 0.07 6.3 0.07L6.3 0.07 5.96 0.07ZM38.03 0.24Q32.64 0.24 30.01-2.58 27.39-5.4 27.39-11.21L27.39-11.21Q27.39-16.97 29.95-19.96 32.52-22.95 37.5-22.95L37.5-22.95Q41.94-22.95 44.2-20.07 46.46-17.19 46.46-11.62L46.46-11.62Q46.46-11.38 46.2-10.95 45.94-10.52 45.59-10.19 45.24-9.86 44.99-9.86L44.99-9.86 31.3-9.86Q31.56-6.23 33.16-4.55 34.76-2.88 37.99-2.88L37.99-2.88Q39.79-2.88 41.1-3.32 42.4-3.76 43.63-4.39L43.63-4.39Q43.75-4.44 43.99-4.57 44.24-4.69 44.33-4.69L44.33-4.69Q44.6-4.69 44.96-4.26 45.31-3.83 45.57-3.31 45.82-2.78 45.82-2.54L45.82-2.54Q45.82-2 44.75-1.34 43.67-0.68 41.88-0.22 40.09 0.24 38.03 0.24L38.03 0.24ZM31.3-12.99L42.58-12.99Q42.58-19.82 37.38-19.82L37.38-19.82Q31.78-19.82 31.3-12.99L31.3-12.99ZM57.56 0.24Q55.39 0.24 53.68-1.07 51.97-2.39 51.97-5.74L51.97-5.74 51.97-31.69Q51.97-32.64 53.71-32.64L53.71-32.64 53.9-32.64Q55.61-32.64 55.61-31.69L55.61-31.69 55.61-6.08Q55.61-4.3 56.25-3.59 56.88-2.88 57.95-2.88L57.95-2.88Q58.76-2.88 59.22-2.98 59.69-3.08 59.83-3.08L59.83-3.08Q60.22-3.08 60.48-2.29 60.74-1.51 60.74-1.05L60.74-1.05Q60.74 0.24 57.56 0.24L57.56 0.24ZM73.77 0.24Q68.86 0.24 66.29-2.7 63.71-5.64 63.71-11.25L63.71-11.25Q63.71-16.87 66.33-19.91 68.94-22.95 73.77-22.95L73.77-22.95Q78.56-22.95 81.1-19.93 83.64-16.92 83.64-11.25L83.64-11.25Q83.64-5.62 81.13-2.69 78.63 0.24 73.77 0.24L73.77 0.24ZM73.65-2.88Q76.82-2.88 78.34-4.94 79.85-7.01 79.85-11.33L79.85-11.33Q79.85-15.67 78.34-17.75 76.82-19.82 73.65-19.82L73.65-19.82Q70.5-19.82 69.01-17.76 67.52-15.7 67.52-11.33L67.52-11.33Q67.52-6.98 69-4.93 70.48-2.88 73.65-2.88L73.65-2.88ZM95.18 0.24Q93.01 0.24 91.3-1.07 89.59-2.39 89.59-5.74L89.59-5.74 89.59-31.69Q89.59-32.64 91.32-32.64L91.32-32.64 91.52-32.64Q93.23-32.64 93.23-31.69L93.23-31.69 93.23-6.08Q93.23-4.3 93.86-3.59 94.5-2.88 95.57-2.88L95.57-2.88Q96.38-2.88 96.84-2.98 97.3-3.08 97.45-3.08L97.45-3.08Q97.84-3.08 98.1-2.29 98.35-1.51 98.35-1.05L98.35-1.05Q98.35 0.24 95.18 0.24L95.18 0.24ZM108.48 0.24Q105.16 0.24 103.11-1.39 101.06-3.03 101.06-6.25L101.06-6.25Q101.06-9.64 103.14-11.36 105.21-13.09 108.2-13.59 111.19-14.09 115.47-14.16L115.47-14.16 115.47-16.21Q115.47-17.85 114.36-18.84 113.24-19.82 110.71-19.82L110.71-19.82Q108.78-19.82 107.32-19.37 105.87-18.92 104.6-18.29L104.6-18.29Q104.06-18.02 103.94-18.02L103.94-18.02Q103.65-18.02 103.3-18.44 102.94-18.87 102.69-19.41 102.43-19.95 102.43-20.19L102.43-20.19Q102.43-20.75 103.59-21.41 104.75-22.07 106.63-22.51 108.51-22.95 110.56-22.95L110.56-22.95Q114.64-22.95 116.88-21.17 119.13-19.38 119.13-16.16L119.13-16.16 119.13-6.42Q119.13-3.59 119.38-2.33 119.64-1.07 119.64-0.95L119.64-0.95Q119.64-0.42 118.82-0.18 118.01 0.05 117.3 0.05L117.3 0.05Q116.71 0.05 116.43-0.61 116.15-1.27 115.88-2.51L115.88-2.51 115.78-3Q114.44-1.51 112.62-0.63 110.8 0.24 108.48 0.24L108.48 0.24ZM108.68-2.91Q110.83-2.91 112.34-3.69 113.85-4.47 115.47-5.91L115.47-5.91 115.47-11.04Q112.24-11.01 110.17-10.77 108.09-10.52 106.53-9.53 104.97-8.54 104.97-6.47L104.97-6.47Q104.97-4.74 105.91-3.82 106.85-2.91 108.68-2.91L108.68-2.91ZM143.34 0.24Q140.02 0.24 138.14-1.62 136.26-3.49 136.26-6.79L136.26-6.79 136.26-21.83Q136.26-22.78 138.02-22.78L138.02-22.78 138.19-22.78Q139.92-22.78 139.92-21.83L139.92-21.83 139.92-7.13Q139.92-5.13 141.08-4.02 142.24-2.91 144.34-2.91L144.34-2.91Q145.81-2.91 147.27-3.72 148.74-4.54 149.81-5.96L149.81-5.96 149.81-21.83Q149.81-22.78 151.55-22.78L151.55-22.78 151.72-22.78Q153.47-22.78 153.47-21.83L153.47-21.83 153.47-6.42Q153.47-3.59 153.72-2.33 153.96-1.07 153.96-0.95L153.96-0.95Q153.96-0.42 153.16-0.18 152.35 0.05 151.64 0.05L151.64 0.05Q151.03 0.05 150.74-0.65 150.45-1.34 150.31-2.08 150.18-2.81 150.13-3L150.13-3Q148.76-1.46 146.97-0.61 145.17 0.24 143.34 0.24L143.34 0.24ZM165.61 0.42Q163.77 0.42 162.19-0.05 160.6-0.51 159.66-1.18 158.72-1.86 158.72-2.37L158.72-2.37Q158.72-2.61 158.98-3.15 159.23-3.69 159.59-4.11 159.94-4.54 160.23-4.54L160.23-4.54Q160.31-4.54 160.67-4.3L160.67-4.3Q161.65-3.66 162.74-3.22 163.82-2.78 165.34-2.78L165.34-2.78Q169.58-2.78 169.58-6.3L169.58-6.3Q169.58-7.3 169.18-7.98 168.78-8.67 167.84-9.19 166.9-9.72 165.26-10.21L165.26-10.21Q162.92-10.89 161.61-11.77 160.31-12.65 159.77-13.83 159.23-15.01 159.23-16.7L159.23-16.7Q159.23-18.51 160.15-19.95 161.06-21.39 162.71-22.19 164.36-23 166.44-23L166.44-23Q167.88-23 169.21-22.73 170.54-22.46 171.35-22.03 172.17-21.61 172.17-21.14L172.17-21.14Q172.17-20.8 171.94-20.23 171.71-19.65 171.37-19.23 171.02-18.8 170.76-18.8L170.76-18.8Q170.71-18.8 170.15-19.1 169.58-19.41 168.72-19.67 167.85-19.92 166.8-19.92L166.8-19.92Q165.14-19.92 164.05-19.18 162.97-18.43 162.97-17.19L162.97-17.19Q162.97-15.72 163.75-14.84 164.53-13.96 166.34-13.4L166.34-13.4Q169.12-12.55 170.59-11.69 172.05-10.84 172.67-9.61 173.3-8.37 173.3-6.37L173.3-6.37Q173.3-4.47 172.27-2.92 171.24-1.37 169.49-0.48 167.73 0.42 165.61 0.42L165.61 0.42ZM184.65 0.24Q181.33 0.24 179.27-1.39 177.22-3.03 177.22-6.25L177.22-6.25Q177.22-9.64 179.3-11.36 181.37-13.09 184.36-13.59 187.36-14.09 191.63-14.16L191.63-14.16 191.63-16.21Q191.63-17.85 190.52-18.84 189.41-19.82 186.87-19.82L186.87-19.82Q184.94-19.82 183.49-19.37 182.03-18.92 180.76-18.29L180.76-18.29Q180.23-18.02 180.1-18.02L180.1-18.02Q179.81-18.02 179.46-18.44 179.1-18.87 178.85-19.41 178.59-19.95 178.59-20.19L178.59-20.19Q178.59-20.75 179.75-21.41 180.91-22.07 182.79-22.51 184.67-22.95 186.72-22.95L186.72-22.95Q190.8-22.95 193.04-21.17 195.29-19.38 195.29-16.16L195.29-16.16 195.29-6.42Q195.29-3.59 195.55-2.33 195.8-1.07 195.8-0.95L195.8-0.95Q195.8-0.42 194.98-0.18 194.17 0.05 193.46 0.05L193.46 0.05Q192.87 0.05 192.59-0.61 192.31-1.27 192.04-2.51L192.04-2.51 191.95-3Q190.6-1.51 188.78-0.63 186.96 0.24 184.65 0.24L184.65 0.24ZM184.84-2.91Q186.99-2.91 188.5-3.69 190.02-4.47 191.63-5.91L191.63-5.91 191.63-11.04Q188.41-11.01 186.33-10.77 184.25-10.52 182.69-9.53 181.13-8.54 181.13-6.47L181.13-6.47Q181.13-4.74 182.07-3.82 183.01-2.91 184.84-2.91L184.84-2.91ZM204.49 0.07Q202.76 0.07 202.76-0.88L202.76-0.88 202.76-31.69Q202.76-32.64 204.49-32.64L204.49-32.64 204.66-32.64Q206.42-32.64 206.42-31.69L206.42-31.69 206.42-19.97Q207.69-21.26 209.4-22.11 211.11-22.95 213.04-22.95L213.04-22.95Q215.77-22.95 217.86-21.41 219.95-19.87 219.95-15.94L219.95-15.94 219.95-0.88Q219.95 0.07 218.21 0.07L218.21 0.07 218.04 0.07Q216.28 0.07 216.28-0.88L216.28-0.88 216.28-15.58Q216.28-17.55 215.16-18.68 214.04-19.8 211.86-19.8L211.86-19.8Q210.42-19.8 209.22-19.12 208.01-18.43 207.21-17.64 206.42-16.85 206.42-16.75L206.42-16.75 206.42-0.88Q206.42 0.07 204.66 0.07L204.66 0.07 204.49 0.07ZM232.83 0.24Q229.51 0.24 227.46-1.39 225.41-3.03 225.41-6.25L225.41-6.25Q225.41-9.64 227.49-11.36 229.56-13.09 232.55-13.59 235.54-14.09 239.82-14.16L239.82-14.16 239.82-16.21Q239.82-17.85 238.71-18.84 237.59-19.82 235.06-19.82L235.06-19.82Q233.13-19.82 231.67-19.37 230.22-18.92 228.95-18.29L228.95-18.29Q228.41-18.02 228.29-18.02L228.29-18.02Q228-18.02 227.65-18.44 227.29-18.87 227.04-19.41 226.78-19.95 226.78-20.19L226.78-20.19Q226.78-20.75 227.94-21.41 229.1-22.07 230.98-22.51 232.86-22.95 234.91-22.95L234.91-22.95Q238.99-22.95 241.23-21.17 243.48-19.38 243.48-16.16L243.48-16.16 243.48-6.42Q243.48-3.59 243.73-2.33 243.99-1.07 243.99-0.95L243.99-0.95Q243.99-0.42 243.17-0.18 242.36 0.05 241.65 0.05L241.65 0.05Q241.06 0.05 240.78-0.61 240.5-1.27 240.23-2.51L240.23-2.51 240.13-3Q238.79-1.51 236.97-0.63 235.15 0.24 232.83 0.24L232.83 0.24ZM233.03-2.91Q235.18-2.91 236.69-3.69 238.2-4.47 239.82-5.91L239.82-5.91 239.82-11.04Q236.59-11.01 234.52-10.77 232.44-10.52 230.88-9.53 229.32-8.54 229.32-6.47L229.32-6.47Q229.32-4.74 230.26-3.82 231.2-2.91 233.03-2.91L233.03-2.91ZM273.68-22.95Q276.39-22.95 278.44-21.41 280.49-19.87 280.49-15.94L280.49-15.94 280.49-0.88Q280.49-0.39 280.07-0.16 279.66 0.07 278.75 0.07L278.75 0.07 278.61 0.07Q277.68 0.07 277.26-0.16 276.85-0.39 276.85-0.88L276.85-0.88 276.85-15.58Q276.85-17.55 275.79-18.68 274.73-19.8 272.68-19.8L272.68-19.8Q270.97-19.8 269.59-18.81 268.21-17.82 267.35-16.75L267.35-16.75Q267.4-16.16 267.4-15.87L267.4-15.87 267.4-0.88Q267.4 0.07 265.64 0.07L265.64 0.07 265.47 0.07Q263.74 0.07 263.74-0.88L263.74-0.88 263.74-15.58Q263.74-17.55 262.68-18.68 261.62-19.8 259.56-19.8L259.56-19.8Q258.15-19.8 256.98-19.13 255.8-18.46 255.04-17.68 254.27-16.89 254.27-16.8L254.27-16.8 254.27-0.88Q254.27-0.39 253.86-0.16 253.46 0.07 252.56 0.07L252.56 0.07 252.36 0.07Q251.46 0.07 251.06-0.16 250.65-0.39 250.65-0.88L250.65-0.88 250.65-16.11Q250.65-18.95 250.39-20.2 250.12-21.46 250.12-21.58L250.12-21.58Q250.12-22.12 250.93-22.35 251.75-22.58 252.46-22.58L252.46-22.58Q253.07-22.58 253.36-21.92 253.66-21.26 253.79-20.58 253.93-19.9 253.97-19.7L253.97-19.7Q255.17-21.09 256.9-22.02 258.64-22.95 260.57-22.95L260.57-22.95Q262.54-22.95 264.25-22.16 265.96-21.36 266.77-19.36L266.77-19.36Q268.11-20.95 269.92-21.95 271.72-22.95 273.68-22.95L273.68-22.95ZM294.08 0.24Q290.76 0.24 288.88-1.62 287-3.49 287-6.79L287-6.79 287-21.83Q287-22.78 288.76-22.78L288.76-22.78 288.93-22.78Q290.67-22.78 290.67-21.83L290.67-21.83 290.67-7.13Q290.67-5.13 291.83-4.02 292.99-2.91 295.08-2.91L295.08-2.91Q296.55-2.91 298.01-3.72 299.48-4.54 300.55-5.96L300.55-5.96 300.55-21.83Q300.55-22.78 302.29-22.78L302.29-22.78 302.46-22.78Q304.22-22.78 304.22-21.83L304.22-21.83 304.22-6.42Q304.22-3.59 304.46-2.33 304.7-1.07 304.7-0.95L304.7-0.95Q304.7-0.42 303.9-0.18 303.09 0.05 302.38 0.05L302.38 0.05Q301.77 0.05 301.48-0.65 301.19-1.34 301.05-2.08 300.92-2.81 300.87-3L300.87-3Q299.5-1.46 297.71-0.61 295.91 0.24 294.08 0.24L294.08 0.24ZM329.02 0.24Q326.48 0.24 324.57-1.23 322.67-2.71 321.63-5.35 320.59-7.98 320.59-11.33L320.59-11.33Q320.59-15.01 321.7-17.64 322.81-20.26 324.82-21.61 326.82-22.95 329.43-22.95L329.43-22.95Q331.31-22.95 332.76-22.39 334.22-21.83 335.63-20.75L335.63-20.75 335.63-31.69Q335.63-32.64 337.34-32.64L337.34-32.64 337.54-32.64Q339.27-32.64 339.27-31.69L339.27-31.69 339.27-6.42Q339.27-3.59 339.54-2.33 339.81-1.07 339.81-0.95L339.81-0.95Q339.81-0.42 338.99-0.18 338.17 0.05 337.46 0.05L337.46 0.05Q336.97 0.05 336.68-0.42 336.39-0.88 336.28-1.35 336.17-1.83 335.92-3L335.92-3Q332.82 0.24 329.02 0.24L329.02 0.24ZM329.77-2.91Q331.21-2.91 332.76-3.69 334.31-4.47 335.63-5.91L335.63-5.91 335.63-17.8Q333.29-19.75 330.28-19.75L330.28-19.75Q327.38-19.68 325.9-17.63 324.43-15.58 324.43-11.67L324.43-11.67Q324.43-7.47 325.8-5.19 327.18-2.91 329.77-2.91L329.77-2.91ZM348.4-28.17Q346.66-28.17 346.66-29.13L346.66-29.13 346.66-31.69Q346.66-32.64 348.4-32.64L348.4-32.64 348.91-32.64Q350.67-32.64 350.67-31.69L350.67-31.69 350.67-29.13Q350.67-28.17 348.91-28.17L348.91-28.17 348.4-28.17ZM348.57 0.07Q346.84 0.07 346.84-0.88L346.84-0.88 346.84-21.83Q346.84-22.78 348.57-22.78L348.57-22.78 348.74-22.78Q350.5-22.78 350.5-21.83L350.5-21.83 350.5-0.88Q350.5 0.07 348.74 0.07L348.74 0.07 348.57 0.07ZM362.8 0.42Q360.97 0.42 359.38-0.05 357.79-0.51 356.85-1.18 355.91-1.86 355.91-2.37L355.91-2.37Q355.91-2.61 356.17-3.15 356.43-3.69 356.78-4.11 357.14-4.54 357.43-4.54L357.43-4.54Q357.5-4.54 357.87-4.3L357.87-4.3Q358.84-3.66 359.93-3.22 361.02-2.78 362.53-2.78L362.53-2.78Q366.78-2.78 366.78-6.3L366.78-6.3Q366.78-7.3 366.38-7.98 365.97-8.67 365.03-9.19 364.09-9.72 362.46-10.21L362.46-10.21Q360.11-10.89 358.81-11.77 357.5-12.65 356.96-13.83 356.43-15.01 356.43-16.7L356.43-16.7Q356.43-18.51 357.34-19.95 358.26-21.39 359.91-22.19 361.55-23 363.63-23L363.63-23Q365.07-23 366.4-22.73 367.73-22.46 368.55-22.03 369.37-21.61 369.37-21.14L369.37-21.14Q369.37-20.8 369.13-20.23 368.9-19.65 368.56-19.23 368.22-18.8 367.95-18.8L367.95-18.8Q367.9-18.8 367.34-19.1 366.78-19.41 365.91-19.67 365.05-19.92 364-19.92L364-19.92Q362.34-19.92 361.25-19.18 360.16-18.43 360.16-17.19L360.16-17.19Q360.16-15.72 360.94-14.84 361.73-13.96 363.53-13.4L363.53-13.4Q366.31-12.55 367.78-11.69 369.24-10.84 369.87-9.61 370.49-8.37 370.49-6.37L370.49-6.37Q370.49-4.47 369.46-2.92 368.44-1.37 366.68-0.48 364.92 0.42 362.8 0.42L362.8 0.42ZM377.81-28.17Q376.08-28.17 376.08-29.13L376.08-29.13 376.08-31.69Q376.08-32.64 377.81-32.64L377.81-32.64 378.32-32.64Q380.08-32.64 380.08-31.69L380.08-31.69 380.08-29.13Q380.08-28.17 378.32-28.17L378.32-28.17 377.81-28.17ZM377.98 0.07Q376.25 0.07 376.25-0.88L376.25-0.88 376.25-21.83Q376.25-22.78 377.98-22.78L377.98-22.78 378.15-22.78Q379.91-22.78 379.91-21.83L379.91-21.83 379.91-0.88Q379.91 0.07 378.15 0.07L378.15 0.07 377.98 0.07ZM389.28 0.07Q388.36 0.07 387.94-0.16 387.53-0.39 387.53-0.88L387.53-0.88 387.53-16.11Q387.53-18.95 387.26-20.2 386.99-21.46 386.99-21.58L386.99-21.58Q386.99-22.12 387.81-22.35 388.62-22.58 389.36-22.58L389.36-22.58Q389.97-22.58 390.26-21.92 390.55-21.26 390.69-20.58 390.82-19.9 390.87-19.7L390.87-19.7Q392.24-21.24 394.03-22.09 395.83-22.95 397.66-22.95L397.66-22.95Q400.98-22.95 402.85-21.08 404.71-19.21 404.71-15.94L404.71-15.94 404.71-0.88Q404.71-0.39 404.3-0.16 403.88 0.07 402.98 0.07L402.98 0.07 402.78 0.07Q401.91 0.07 401.49-0.16 401.08-0.39 401.08-0.88L401.08-0.88 401.08-15.58Q401.08-17.58 399.92-18.69 398.76-19.8 396.66-19.8L396.66-19.8Q395.19-19.8 393.71-18.98 392.24-18.16 391.16-16.75L391.16-16.75 391.16-0.88Q391.16-0.39 390.75-0.16 390.33 0.07 389.45 0.07L389.45 0.07 389.28 0.07ZM413.48-28.17Q411.74-28.17 411.74-29.13L411.74-29.13 411.74-31.69Q411.74-32.64 413.48-32.64L413.48-32.64 413.99-32.64Q415.75-32.64 415.75-31.69L415.75-31.69 415.75-29.13Q415.75-28.17 413.99-28.17L413.99-28.17 413.48-28.17ZM413.65 0.07Q411.91 0.07 411.91-0.88L411.91-0.88 411.91-21.83Q411.91-22.78 413.65-22.78L413.65-22.78 413.82-22.78Q415.58-22.78 415.58-21.83L415.58-21.83 415.58-0.88Q415.58 0.07 413.82 0.07L413.82 0.07 413.65 0.07Z" opacity="1" transform="matrix(1,0,0,1,0,0)" fill="#3c3c3c" class="slogan-text-1" data-fill-palette-color="secondary" id="text-1"></path></svg></g></svg></g></svg></g></svg></g><g><svg viewBox="0 0 166.74654313685298 155.63010692772943" height="155.63010692772943" width="166.74654313685298"><g><svg xmlns="http://www.w3.org/2000/svg" viewBox="0 0 30 28" x="0" y="0" height="155.63010692772943" width="166.74654313685298" class="icon-icon-0" data-fill-palette-color="accent" id="icon-0"><path fill="#2e8b57" fill-rule="evenodd" d="M9 18v3h4v2H7v-7h6v2H9z m8 8h4v-8h-4v8z m9 0h-3V16h-8v10H4V15H2v13h26V15h-2v11z m2-17c0 1.379-1.121 2.5-2.5 2.5A2.502 2.502 0 0 1 23 9h-2c0 1.379-1.121 2.5-2.5 2.5A2.502 2.502 0 0 1 16 9h-2c0 1.379-1.122 2.5-2.5 2.5A2.503 2.503 0 0 1 9 9H7c0 1.379-1.122 2.5-2.5 2.5A2.503 2.503 0 0 1 2 9V6.277L4.566 2h20.868l1.799 3H7v2h21v2z m-1.434-9H3.434L0 5.723V9c0 2.481 2.019 4.5 4.5 4.5A4.49 4.49 0 0 0 8 11.825a4.49 4.49 0 0 0 7 0 4.49 4.49 0 0 0 7 0 4.49 4.49 0 0 0 3.5 1.675c2.481 0 4.5-2.019 4.5-4.5V5.723L26.566 0z" data-fill-palette-color="accent"></path></svg></g></svg></g></svg></g></svg></g></svg></g><defs></defs></svg><rect width="395.52" height="106.49426284794085" fill="none" stroke="none" visibility="hidden"></rect></g></svg></g></svg>